<svg xmlns="http://www.w3.org/2000/svg" xmlns:xlink="http://www.w3.org/1999/xlink" width="2000" zoomAndPan="magnify" viewBox="0 0 1500 1499.999933" height="2000" preserveAspectRatio="xMidYMid meet" version="1.0"><defs><g/><clipPath id="689f7727aa"><path d="M 0.8125 0.988281 L 1389.1875 0.988281 L 1389.1875 1389.363281 L 0.8125 1389.363281 Z M 0.8125 0.988281 " clip-rule="nonzero"/></clipPath><clipPath id="c746d93008"><path d="M 71.3125 0.988281 L 1318.6875 0.988281 C 1357.625 0.988281 1389.1875 32.550781 1389.1875 71.488281 L 1389.1875 1318.863281 C 1389.1875 1357.796875 1357.625 1389.363281 1318.6875 1389.363281 L 71.3125 1389.363281 C 32.375 1389.363281 0.8125 1357.796875 0.8125 1318.863281 L 0.8125 71.488281 C 0.8125 32.550781 32.375 0.988281 71.3125 0.988281 Z M 71.3125 0.988281 " clip-rule="nonzero"/></clipPath><clipPath id="ca3dbd7683"><path d="M 0.8125 0.988281 L 1389.1875 0.988281 L 1389.1875 1389.363281 L 0.8125 1389.363281 Z M 0.8125 0.988281 " clip-rule="nonzero"/></clipPath><clipPath id="cd02d4312e"><path d="M 71.3125 0.988281 L 1318.6875 0.988281 C 1357.625 0.988281 1389.1875 32.550781 1389.1875 71.488281 L 1389.1875 1318.863281 C 1389.1875 1357.796875 1357.625 1389.363281 1318.6875 1389.363281 L 71.3125 1389.363281 C 32.375 1389.363281 0.8125 1357.796875 0.8125 1318.863281 L 0.8125 71.488281 C 0.8125 32.550781 32.375 0.988281 71.3125 0.988281 Z M 71.3125 0.988281 " clip-rule="nonzero"/></clipPath><clipPath id="2f08d58e29"><rect x="0" width="1390" y="0" height="1390"/></clipPath><clipPath id="063130fe09"><path d="M 233 192 L 1190 192 L 1190 1455.917969 L 233 1455.917969 Z M 233 192 " clip-rule="nonzero"/></clipPath><clipPath id="2627d418d9"><rect x="0" width="957" y="0" height="1264"/></clipPath><clipPath id="1552d96a87"><rect x="0" width="1390" y="0" height="1456"/></clipPath></defs><g transform="matrix(1, 0, 0, 1, 55, 34)"><g clip-path="url(#1552d96a87)"><g clip-path="url(#689f7727aa)"><g clip-path="url(#c746d93008)"><g transform="matrix(1, 0, 0, 1, -0.000000000000007105, 0.000000000000113687)"><g clip-path="url(#2f08d58e29)"><g clip-path="url(#ca3dbd7683)"><g clip-path="url(#cd02d4312e)"><path fill="#000000" d="M 0.8125 0.988281 L 1389.1875 0.988281 L 1389.1875 1389.363281 L 0.8125 1389.363281 Z M 0.8125 0.988281 " fill-opacity="1" fill-rule="nonzero"/></g></g></g></g></g></g><g clip-path="url(#063130fe09)"><g transform="matrix(1, 0, 0, 1, 233, 192)"><g clip-path="url(#2627d418d9)"><g fill="#ffffff" fill-opacity="1"><g transform="translate(0.58826, 907.295889)"><g><path d="M 749.21875 0 L 709.84375 -493.765625 L 704.796875 -493.765625 L 534.15625 -5.046875 L 421.0625 -5.046875 L 250.421875 -493.765625 L 245.359375 -493.765625 L 205.984375 0 L 16.15625 0 L 90.875 -833.03125 L 292.828125 -833.03125 L 477.609375 -352.390625 L 662.390625 -833.03125 L 864.328125 -833.03125 L 939.046875 0 Z M 749.21875 0 "/></g></g></g></g></g></g></g></g></svg>